# xmcd
#
# Track frame offsets:
#	150
#	13097
#	27925
#	38157
#	55847
#	80365
#	93910
#	111777
#	125292
#	144510
#	146495
#	158225
#	163465
#	178005
#	192207
#
# Disc length: 2758 seconds
#
# Revision: 3
# Processed by: cddbd v1.5.2PL0 Copyright (c) Steve Scherf et al.
# Submitted via: audiograbber 1.83.01
#
DISCID=c60ac40f
DTITLE=Various Artist - White Mansions - A Tale From The American Civil War 18
DTITLE=61-1865
DYEAR=1978
DGENRE=Country
TTITLE0=Jessi Colter - Story To Tell (The Preface)
TTITLE1=Waylon Jennings - Dixie, Hold On
TTITLE2=John Dillon - Join Around The Flag
TTITLE3=Steve Cash - White Trash
TTITLE4=John Dillon and Jessi Colter - The Last Dance and The Kentucky Racehorse
TTITLE5=Steve Cash - Southern Boys
TTITLE6=Waylon Jennings and Jessi Colter - The Union Mare and The Confederate Grey
TTITLE7=John Dillon - No One Would Believe A Summer Could Be So Cold
TTITLE8=Waylon Jennings - The Southland's Bleeding
TTITLE9=John Dillon - Bring Up The Twelve Pounders
TTITLE10=John Dillon and Steve Cash and Waylon Jennings - They Laid Waste To Our La
TTITLE10=nd
TTITLE11=Rodena Preston's "Voices Of Deliverance" - Praise The Lord
TTITLE12=Steve Cash - The King Has Called Me Home
TTITLE13=John Dillon - Bad Man
TTITLE14=Waylon Jennings - Dixie, Now You're Done
EXTD=
EXTT0=
EXTT1=
EXTT2=
EXTT3=
EXTT4=
EXTT5=
EXTT6=
EXTT7=
EXTT8=
EXTT9=
EXTT10=
EXTT11=
EXTT12=
EXTT13=
EXTT14=
PLAYORDER=
